<?xml version="1.0" encoding="utf-8"?>
<!-- Generator: Adobe Illustrator 26.0.3, SVG Export Plug-In . SVG Version: 6.00 Build 0)  -->
<svg version="1.1" id="Camada_1" xmlns="http://www.w3.org/2000/svg" xmlns:xlink="http://www.w3.org/1999/xlink" x="0px" y="0px"
	 viewBox="0 0 512 512" style="enable-background:new 0 0 512 512;" xml:space="preserve">
<style type="text/css">
	.st0{fill:url(#External_heart_00000080909257252985769100000011061172502197097100_);}
	.st1{fill:url(#Inner_heart_00000116225323445131136670000016390722623314209942_);}
	.st2{fill:#FFFFFF;}
	.st3{fill:url(#Elderly_00000142895091231651246160000006092485041179325630_);}
	.st4{fill:#0071BC;}
	.st5{fill:#FFFFFF;stroke:#FFFFFF;stroke-miterlimit:10;}
</style>
<g>
	
		<linearGradient id="External_heart_00000131349108035535701970000003713851807920784276_" gradientUnits="userSpaceOnUse" x1="102.1362" y1="255.9972" x2="410.9868" y2="255.9972" gradientTransform="matrix(0.9971 -0.0758 0.0758 0.9971 -16.1222 16.6691)">
		<stop  offset="0" style="stop-color:#A2FF59"/>
		<stop  offset="0.0477" style="stop-color:#99F862"/>
		<stop  offset="0.1271" style="stop-color:#7FE57A"/>
		<stop  offset="0.2283" style="stop-color:#56C6A2"/>
		<stop  offset="0.344" style="stop-color:#1E9CD7"/>
		<stop  offset="0.5447" style="stop-color:#0379C1"/>
		<stop  offset="0.6976" style="stop-color:#0075BE"/>
		<stop  offset="0.8044" style="stop-color:#005B97"/>
	</linearGradient>
	<path id="External_heart" style="fill:url(#External_heart_00000131349108035535701970000003713851807920784276_);" d="
		M215.04,402.51c11.41-6.32,27.43-15.95,45.37-29.49c8.12-6.13,13.8-11.26,16.79-13.42c111.54-81.03,126.4-114.9,130.63-140.48
		c4.81-29.06-0.15-71.3-24.86-82.91c-26.81-12.6-75.83,11.37-113.73,66.51c0.88-2.31,18.15-49.82-9.69-78.37
		c-6.26-6.42-13.21-9.92-13.21-9.92c-3.25-1.52-6.11-2.33-7.97-2.76c-2.71-0.53-6.71-1.22-11.58-1.67
		c-31.51-2.9-71.31,6.75-96.45,32.36c-26.9,27.4-27.52,63.4-27.8,79.57C100.85,320.95,198.88,391.32,215.04,402.51"/>
	
		<linearGradient id="Inner_heart_00000121964833409784907740000007026970037817101998_" gradientUnits="userSpaceOnUse" x1="123.686" y1="263.6734" x2="379.3108" y2="263.6734" gradientTransform="matrix(0.9971 -0.0758 0.0758 0.9971 -16.1222 16.6691)">
		<stop  offset="0" style="stop-color:#A2FF59"/>
		<stop  offset="0.0531" style="stop-color:#99F862"/>
		<stop  offset="0.1415" style="stop-color:#81E57C"/>
		<stop  offset="0.2542" style="stop-color:#5AC7A5"/>
		<stop  offset="0.3743" style="stop-color:#2AA1D9"/>
		<stop  offset="0.4333" style="stop-color:#1E9CD7"/>
		<stop  offset="0.4777" style="stop-color:#1794D2"/>
		<stop  offset="0.5244" style="stop-color:#0075BE"/>
		<stop  offset="0.5977" style="stop-color:#005B97"/>
	</linearGradient>
	<path id="Inner_heart" style="fill:url(#Inner_heart_00000121964833409784907740000007026970037817101998_);" d="M218.62,389.35
		c9.43-5.4,22.67-13.63,37.47-25.21c6.7-5.24,11.39-9.63,13.86-11.49c92.11-69.31,104.32-98.37,107.74-120.34
		c3.9-24.96-0.34-61.28-20.83-71.33c-22.24-10.91-62.75,9.55-93.97,56.82c0.72-1.98,14.88-42.76-8.25-67.38
		c-5.21-5.54-10.96-8.57-10.96-8.57c-2.7-1.32-5.07-2.02-6.6-2.4c-2.24-0.47-5.56-1.07-9.59-1.47c-26.1-2.59-59.02,5.59-79.76,27.53
		c-22.19,23.47-22.6,54.4-22.78,68.3C123.83,318.92,205.2,379.68,218.62,389.35"/>
	<path id="Heart_background" class="st2" d="M218.42,375.73c8.04-4.52,19.35-11.44,32.02-21.23c5.74-4.43,9.76-8.16,11.87-9.73
		c78.8-58.56,89.5-83.55,92.68-102.54c3.62-21.57,0.5-53.12-16.7-62.17c-18.67-9.82-53.2,7.24-80.21,47.7
		c0.63-1.7,13.14-36.82-6.11-58.54c-4.33-4.89-9.16-7.61-9.16-7.61c-2.26-1.19-4.26-1.83-5.55-2.19c-1.89-0.44-4.69-1.02-8.09-1.43
		c-22.04-2.67-49.99,3.88-67.82,22.55c-19.08,19.98-19.82,46.79-20.15,58.83C139.15,313.12,207.19,367.13,218.42,375.73"/>
	
		<linearGradient id="Elderly_00000169526984951381107880000012445817378683655568_" gradientUnits="userSpaceOnUse" x1="142.0982" y1="269.8398" x2="317.8105" y2="269.8398" gradientTransform="matrix(0.9971 -0.0758 0.0758 0.9971 -16.1222 16.6691)">
		<stop  offset="0" style="stop-color:#CCE0F4"/>
		<stop  offset="0.0521" style="stop-color:#C3DCF2"/>
		<stop  offset="0.1387" style="stop-color:#A9D2EE"/>
		<stop  offset="0.2492" style="stop-color:#80C2E7"/>
		<stop  offset="0.3779" style="stop-color:#47ACDE"/>
		<stop  offset="0.4613" style="stop-color:#1E9CD7"/>
		<stop  offset="0.7646" style="stop-color:#0075BE"/>
		<stop  offset="0.9944" style="stop-color:#005B97"/>
	</linearGradient>
	<path id="Elderly" style="fill:url(#Elderly_00000169526984951381107880000012445817378683655568_);" d="M146.84,285.82
		c1.56-7.08,4.54-16.51,10.58-26.37c12.62-20.59,30.75-30.26,39.11-34.05c-4.61-7.18-4.55-16.38,0.12-23.3
		c5.05-7.47,14.54-10.9,23.43-8.38c2.12,0.36,5.71,1.29,8.96,4.04c6.49,5.48,7.95,15.02,5.63,22.39
		c-2.6,8.28-10.15,14.37-19.27,15.62c0,0,13.79,53.23,18.81,54.03c0,0,22.13-22.53,29.77-25.47c-1.45-0.85-8.22-5.01-10.52-13.6
		c-2.96-11.07,4.09-19.75,4.78-20.57c0.98-0.93,7.75-7.14,17.63-6.06c1.57,0.17,9.27,1.18,14.61,8.03
		c1.15,1.47,5.14,6.75,4.38,14.13c-0.97,9.49-8.96,14.37-9.88,14.91c5.12,1.61,12.97,4.79,20.84,11.25
		c10.67,8.75,15.79,18.93,18.05,24.34c-6,6.23-14.86,14.83-26.49,24.04c-10.32,8.17-18.91,13.73-20.89,14.96
		c-29.1,18.04-88.29,3.67-98.25,1.17c-2.47-2.79-5.85-6.79-9.55-11.86c-6.52-8.92-10.57-16.41-13.46-21.79
		C152.87,298.85,149.9,292.96,146.84,285.82z"/>
	<circle id="Hair" class="st4" cx="296.15" cy="231.99" r="7.45"/>
	<path id="Stick" class="st5" d="M230.4,288.13c0.4-0.12,2.26-0.66,4.69-0.36c0.35,0.04,2.05,0.27,4.03,1.27
		c5.04,2.53,7.28,7.7,7.75,8.85c0.65,1.6,0.89,3.92,1.44,8.54c0.43,3.69,0.43,5.23,1.07,14.08c0.05,0.74,0.26,3.52,0.42,5.48
		c0.35,4.23,0.96,10.29,2.15,17.93c0.09,0.21,0.16,0.51,0.06,0.78c-0.31,0.83-2.06,1.05-3.31,0.64c-1.22-0.4-1.87-1.36-2.1-1.75
		c-0.69-7.33-1.14-13.27-1.42-17.36c-0.14-1.99-0.33-5.31-0.69-10.1c-0.65-8.53-0.62-6.05-0.92-10.12c0,0-0.03-0.42-0.66-5.25
		c-0.03-0.24-0.11-0.86-0.33-1.64c0,0,0,0,0,0c-0.17-0.83-0.54-1.99-1.34-3.16c-1.2-1.75-2.74-2.56-3.37-2.89
		c-0.13-0.07-0.74-0.38-1.62-0.66c-1.23-0.39-2.87-0.92-4.75-0.43c-0.51,0.13-1.96,0.53-3.01,1.8c-0.67,0.81-0.89,1.62-1.33,3.25
		c-0.59,2.21-0.44,3.17-1.3,3.8c-0.06,0.04-0.89,0.64-1.53,0.35c-1.51-0.68-1.72-6,0.85-9.5
		C226.96,289.21,229.59,288.37,230.4,288.13z"/>
</g>
</svg>
